<svg
  xmlns="http://www.w3.org/2000/svg"
  viewBox="0 0 64 64"
  width="64"
  height="64"
>
  <g fill="none" stroke="#000" stroke-width="2">
    <path
      d="M32 2c-6.627 0-12 5.373-12 12v36c0 6.627 5.373 12 12 12s12-5.373 12-12V14c0-6.627-5.373-12-12-12z"
      fill="#ccc"
    />
    <path
      d="M20 14h24M20 50h24M32 2v60M20 14c-4.418 0-8 3.582-8 8v20c0 4.418 3.582 8 8 8M44 14c4.418 0 8 3.582 8 8v20c0 4.418-3.582 8-8 8"
      fill="#fff"
    />
    <circle cx="32" cy="32" r="4" fill="#000" />
    <path
      d="M32 2c-6.627 0-12 5.373-12 12v36c0 6.627 5.373 12 12 12s12-5.373 12-12V14c0-6.627-5.373-12-12-12z"
      fill="none"
    />
  </g>
</svg>